<svg xmlns="http://www.w3.org/2000/svg" viewBox="0 0 14.74 16.61"><defs><style>.cls-1{fill:#f1a9a8;}</style></defs><g id="圖層_2" data-name="圖層 2"><g id="圖層_1-2" data-name="圖層 1"><path class="cls-1" d="M11,16.38c.15.31.83.3,1.08,0S12,.17,12,.17A.91.91,0,0,0,11,.17C10.29.56,10.8,16.07,11,16.38Z"/><polygon class="cls-1" points="9.35 16.61 0 16.6 2.35 2.82 7.22 2.81 9.35 16.61"/><rect class="cls-1" x="3.08" y="2.07" width="3.19" height="0.97"/><rect class="cls-1" x="3.83" y="0.46" width="1.7" height="1.43"/><path class="cls-1" d="M14.43,4.77c0-.22-.27-.43-.3-.65-.07-.42.65-.78.23-1.2-.21-.2-.46-.4-.47-.61s.26-.41.54-.6.41-.34.23-.55a5.59,5.59,0,0,0-.5-.44h-2.6V5.19h2.63C14.34,5.06,14.45,4.92,14.43,4.77Z"/></g></g></svg>