<svg xmlns="http://www.w3.org/2000/svg" viewBox="0 0 12.85 18.09"><defs><style>.cls-1,.cls-5,.cls-6{fill:#f1a9a8;}.cls-2,.cls-3,.cls-4{fill:none;}.cls-2,.cls-3{stroke:#fff;}.cls-2,.cls-3,.cls-4,.cls-5,.cls-6,.cls-7{stroke-miterlimit:10;}.cls-2{stroke-width:0.51px;}.cls-3{stroke-width:0.53px;}.cls-4,.cls-7{stroke:#f1a9a8;}.cls-4{stroke-width:0.75px;}.cls-5,.cls-6{stroke:#f9f7f7;}.cls-5{stroke-width:0.24px;}.cls-6{stroke-width:0.1px;}.cls-7{fill:#f9f7f7;stroke-width:0.25px;}</style></defs><g id="圖層_2" data-name="圖層 2"><g id="圖層_1-2" data-name="圖層 1"><polyline class="cls-1" points="9.35 0 10.61 0 10.61 7.05 9.38 7.05"/><path class="cls-1" d="M8.94,7.19H1.15A1.32,1.32,0,0,1,0,5.74V1.58A1.31,1.31,0,0,1,1.15.14H8.89"/><line class="cls-2" y1="2.09" x2="1.85" y2="2.09"/><line class="cls-2" y1="3.66" x2="1.85" y2="3.66"/><line class="cls-2" y1="5.24" x2="1.85" y2="5.24"/><polygon class="cls-1" points="10.61 7.05 10.61 0 12.85 1.82 12.85 5.49 10.61 7.05"/><line class="cls-3" x1="11.33" y1="2.9" x2="12.85" y2="2.9"/><line class="cls-3" x1="11.33" y1="4.97" x2="12.85" y2="4.97"/><path class="cls-1" d="M1.41,6.24H4.09a0,0,0,0,1,0,0V16A1.11,1.11,0,0,1,3,17.13H2.52A1.11,1.11,0,0,1,1.41,16V6.24a0,0,0,0,1,0,0Z"/><path class="cls-4" d="M1.09,16.54s1.17-.69,1.28.43,1.9.64,1.9.64"/><path class="cls-5" d="M4.09,13.4H3.58c-.41,0-.74-.22-.74-.49V10.8c0-.27.33-.49.74-.49h.51"/><circle class="cls-6" cx="3.51" cy="11.31" r="0.36"/><circle class="cls-7" cx="3.51" cy="12.47" r="0.36"/></g></g></svg>