<svg xmlns="http://www.w3.org/2000/svg" viewBox="0 0 14.36 14.72"><defs><style>.cls-1,.cls-2{fill:none;stroke:#f1a9a8;stroke-miterlimit:10;}.cls-1{stroke-width:0.32px;}.cls-2{stroke-linecap:round;stroke-width:0.24px;}.cls-3,.cls-5{fill:#f1a9a8;}.cls-4{fill:#fff;}.cls-5{font-size:1.55px;font-family:FZLTZHB--B51-0, Lantinghei TC;}</style></defs><g id="圖層_2" data-name="圖層 2"><g id="圖層_1-2" data-name="圖層 1"><path class="cls-1" d="M7,2,.34,5.15a.31.31,0,0,0,.13.6H13.88a.31.31,0,0,0,.13-.6L7.31,2A.32.32,0,0,0,7,2Z"/><path class="cls-2" d="M6.33.7c0-.32.38-.58.85-.58S8,.38,8,.7s-.38.58-.85.58"/><line class="cls-2" x1="7.18" y1="1.32" x2="7.18" y2="2.01"/><path class="cls-3" d="M1.29,5.85H13.06a0,0,0,0,1,0,0v8.29a.58.58,0,0,1-.58.58H1.87a.58.58,0,0,1-.58-.58V5.85A0,0,0,0,1,1.29,5.85Z"/><rect class="cls-4" x="1.88" y="9.73" width="10.6" height="2.79"/><text class="cls-5" transform="translate(4.61 11.61)">金禧福</text></g></g></svg>