<svg id="Icons" height="512" viewBox="0 0 74 74" width="512" xmlns="http://www.w3.org/2000/svg"><path d="m51.357 37.791a1 1 0 0 1 -1-1v-24.047a1 1 0 0 1 2 0v24.047a1 1 0 0 1 -1 1z"/><path d="m29.441 9.32a1.045 1.045 0 0 1 -.191-.02l-2.94-.57a1 1 0 0 1 .38-1.964l2.941.57a1 1 0 0 1 -.19 1.982z"/><path d="m20.81 43.55a18.721 18.721 0 0 1 -11.887-33.261 1 1 0 1 1 1.277 1.542 16.743 16.743 0 0 0 10.61 29.719 16.463 16.463 0 0 0 3.364-.328l35.045-6.833a3.626 3.626 0 0 1 3.991 2.038 3.852 3.852 0 0 0 3.55 2.353h3.24v-28.04h-3.24a3.831 3.831 0 0 0 -3.548 2.347 3.617 3.617 0 0 1 -3.979 2.047l-22.984-4.472a1 1 0 1 1 .383-1.962l22.968 4.468a1.6 1.6 0 0 0 1.768-.861 5.826 5.826 0 0 1 5.392-3.567h4.24a1 1 0 0 1 1 1v30.04a1 1 0 0 1 -1 1h-4.24a5.85 5.85 0 0 1 -5.39-3.569 1.6 1.6 0 0 0 -1.783-.857l-35.016 6.828a18.391 18.391 0 0 1 -3.761.368z"/><path d="m16.559 8.49a1 1 0 0 1 -.243-1.97 18.145 18.145 0 0 1 3.115-.5 1 1 0 1 1 .138 2 15.97 15.97 0 0 0 -2.769.44.976.976 0 0 1 -.241.03z"/><path d="m21.459 36.7a11.941 11.941 0 1 1 11.941-11.942 11.954 11.954 0 0 1 -11.941 11.942zm0-21.882a9.941 9.941 0 1 0 9.94 9.941 9.952 9.952 0 0 0 -9.94-9.942z"/><path d="m29.547 68.038h-9.286a2.553 2.553 0 0 1 -2.546-2.3l-2.448-23.664a1 1 0 1 1 1.99-.206l2.443 23.668a.558.558 0 0 0 .556.5h9.286a.551.551 0 0 0 .414-.184.557.557 0 0 0 .142-.431l-2.414-23.972a1 1 0 0 1 1.99-.2l2.419 23.974a2.561 2.561 0 0 1 -2.546 2.816z"/><path d="m29.87 54.1a1 1 0 0 1 -.055-2l2.6-.144-.335-4.277-2.787.158a1 1 0 0 1 -.113-2l3.1-.177a1.673 1.673 0 0 1 1.765 1.543l.387 4.925a1.677 1.677 0 0 1 -1.578 1.8l-2.931.163z"/></svg>